# Blender 3.6.5
# www.blender.org
mtllib sample.mtl
o Cube
v 0.298168 0.395002 -0.183532
v 0.298168 -0.104998 -0.183532
v 0.298168 0.395002 0.316468
v 0.298168 -0.104998 0.316468
v -0.201832 0.395002 -0.183532
v -0.201832 -0.104998 -0.183532
v -0.201832 0.395002 0.316468
v -0.201832 -0.104998 0.316468
v 0.147453 0.634383 -0.644213
v 0.147453 0.134383 -0.644213
v 0.147453 0.634383 -0.144213
v 0.147453 0.134383 -0.144213
v -0.352547 0.634383 -0.644213
v -0.352547 0.134383 -0.644213
v -0.352547 0.634383 -0.144213
v -0.352547 0.134383 -0.144213
v 0.549841 0.663904 0.220633
v 0.549841 0.383404 0.220633
v 0.549841 0.663904 0.501133
v 0.549841 0.383404 0.501133
v 0.269341 0.663904 0.220633
v 0.269341 0.383404 0.220633
v 0.269341 0.663904 0.501133
v 0.269341 0.383404 0.501133
v 0.280723 1.065984 -0.209986
v 0.646219 0.733937 -0.288458
v 0.174233 0.845716 0.226066
v 0.539728 0.513669 0.147595
v -0.043426 0.763946 -0.441720
v 0.322069 0.431899 -0.520191
v -0.149917 0.543679 -0.005667
v 0.215578 0.211631 -0.084138
vn -0.0000 1.0000 -0.0000
vn -0.0000 -0.0000 1.0000
vn -1.0000 -0.0000 -0.0000
vn -0.0000 -1.0000 -0.0000
vn 1.0000 -0.0000 -0.0000
vn -0.0000 -0.0000 -1.0000
vn -0.7310 0.6641 0.1569
vn -0.2130 -0.4405 0.8721
vn -0.6483 -0.6041 -0.4635
vn 0.7310 -0.6641 -0.1569
vn 0.6483 0.6041 0.4635
vn 0.2130 0.4405 -0.8721
vt 0.625000 0.500000
vt 0.875000 0.500000
vt 0.875000 0.750000
vt 0.625000 0.750000
vt 0.375000 0.750000
vt 0.625000 1.000000
vt 0.375000 1.000000
vt 0.375000 0.000000
vt 0.625000 0.000000
vt 0.625000 0.250000
vt 0.375000 0.250000
vt 0.125000 0.500000
vt 0.375000 0.500000
vt 0.125000 0.750000
s 0
usemtl Material
f 1/1/1 5/2/1 7/3/1 3/4/1
f 4/5/2 3/4/2 7/6/2 8/7/2
f 8/8/3 7/9/3 5/10/3 6/11/3
f 6/12/4 2/13/4 4/5/4 8/14/4
f 2/13/5 1/1/5 3/4/5 4/5/5
f 6/11/6 5/10/6 1/1/6 2/13/6
f 9/1/1 13/2/1 15/3/1 11/4/1
f 12/5/2 11/4/2 15/6/2 16/7/2
f 16/8/3 15/9/3 13/10/3 14/11/3
f 14/12/4 10/13/4 12/5/4 16/14/4
f 10/13/5 9/1/5 11/4/5 12/5/5
f 14/11/6 13/10/6 9/1/6 10/13/6
f 17/1/1 21/2/1 23/3/1 19/4/1
f 20/5/2 19/4/2 23/6/2 24/7/2
f 24/8/3 23/9/3 21/10/3 22/11/3
f 22/12/4 18/13/4 20/5/4 24/14/4
f 18/13/5 17/1/5 19/4/5 20/5/5
f 22/11/6 21/10/6 17/1/6 18/13/6
f 25/1/7 29/2/7 31/3/7 27/4/7
f 28/5/8 27/4/8 31/6/8 32/7/8
f 32/8/9 31/9/9 29/10/9 30/11/9
f 30/12/10 26/13/10 28/5/10 32/14/10
f 26/13/11 25/1/11 27/4/11 28/5/11
f 30/11/12 29/10/12 25/1/12 26/13/12
